# xmcd
#
# Track frame offsets: 
#        182
#        19077
#        34847
#        49220
#        64475
#        81930
#        93845
#        110962
#        125580
#        140387
#
# Disc length: 2136 seconds
#
# Revision: 0
# Processed by: cddbd v1.5.2PL0 Copyright (c) Steve Scherf et al.
# Submitted via: ExactAudioCopy v1.0b1
#
DISCID=8f08560a
DTITLE=4 Runner - One For The Ages
DYEAR=1996
DGENRE=Country
TTITLE0=That Was Him (This Is Now)
TTITLE1=Rosie   
TTITLE2=Mama Mighta Raised a Fool   
TTITLE3=One for the Ages   
TTITLE4=These Days, These Nights   
TTITLE5=One Tonight   
TTITLE6=Every Dream   
TTITLE7=Southbound Train   
TTITLE8=Between a Rock and a Heartache   
TTITLE9=Good Place to Be
EXTD=
EXTT0=
EXTT1=
EXTT2=
EXTT3=
EXTT4=
EXTT5=
EXTT6=
EXTT7=
EXTT8=
EXTT9=
PLAYORDER=
